# xmcd
#
# Track frame offsets: 
#        150
#        6750
#        22202
#        43175
#        57512
#        74355
#        91745
#        108630
#        127375
#        144830
#        162917
#        167107
#        183562
#        203445
#        217260
#        234522
#        240285
#        258580
#        273847
#        292835
#        309455
#
# Disc length: 4434 seconds
#
# Revision: 0
# Processed by: cddbd v1.5.1PL2 Copyright (c) Steve Scherf et al.
# Submitted via: ExactAudioCopy v0.95b4
#
DISCID=35115015
DTITLE=akwid - 2002 A.D.
DYEAR=2002
DGENRE=Rap
TTITLE0=Intro
TTITLE1=Ak and Wikid
TTITLE2=It's Our World
TTITLE3=The Flyest
TTITLE4=Enduvdaze (feat. Big Shot, Sabu)
TTITLE5=Last night
TTITLE6=Scandoceous
TTITLE7=Starskee And Hutch
TTITLE8=Foney
TTITLE9=Alwayz (feat. Rain)
TTITLE10=I Love You
TTITLE11=Confessing a Feeling
TTITLE12=Fantastic Four (feat. Madrukas)
TTITLE13=Cee Alike
TTITLE14=No Tears
TTITLE15=Se Habla Espanoll
TTITLE16=Let n Off
TTITLE17=Big Noiz
TTITLE18=Wanabee
TTITLE19=Third Person
TTITLE20=GeedUp Alwayz
EXTD=
EXTT0=
EXTT1=
EXTT2=
EXTT3=
EXTT4=
EXTT5=
EXTT6=
EXTT7=
EXTT8=
EXTT9=
EXTT10=
EXTT11=
EXTT12=
EXTT13=
EXTT14=
EXTT15=
EXTT16=
EXTT17=
EXTT18=
EXTT19=
EXTT20=
PLAYORDER=
